<svg xmlns="http://www.w3.org/2000/svg" viewBox="0 0 16 16" width="16" height="16" fill="none" stroke="currentColor" stroke-width="1.1" stroke-linecap="round" stroke-linejoin="round">
  <path d="M2.8 13.2l2.5-.6 6-6a1 1 0 0 0 0-1.4l-.5-.5a1 1 0 0 0-1.4 0l-6 6-.6 2.5z"/>
  <path d="M8.8 4.8l2.4 2.4"/>

  <path d="M2.1 3.1v.9"/>
  <path d="M1.65 3.55h.9"/>

  <path d="M12.8 2.2v.8"/>
  <path d="M12.4 2.6h.8"/>

  <path d="M13 10.9c.4 0 .7.2.7.6 0 .2-.1.4-.3.5-.2.2-.4.3-.4.6"/>
  <path d="M13 13.6h0"/>
</svg>
